<svg width="250" height="250" xmlns="http://www.w3.org/2000/svg" fill="none">
 <g>
  <title>Layer 1</title>
  <g id="svg_1">
   <path d="m88.13,97.25l35.17,0l-35.17,52.2502l35.18,0l-38.12,56.635l-35.185,0l35.17,-52.25l-35.175,0l35.165,-52.2502l-35.165,0l38.115,-56.635l35.185,0l-35.17,52.25z" fill="#5A86A3" id="svg_2"/>
   <path d="m196.615,101.635l-35.165,0l35.165,52.2502l-35.175,0l35.17,52.25l-35.185,0l-38.115,-56.635l35.175,0l-35.17,-52.2502l35.17,0l-35.17,-52.25l35.185,0l38.115,56.635z" fill="#5A86A3" id="svg_3"/>
  </g>
  <path d="m92.0601,132.9c0.3836,-0.145 0.7267,-0.38 1,-0.685l3.345,0.03c0,0 -3.145,0.655 -3.405,0.655l-0.94,0z" fill="#5A86A3" id="svg_4"/>
  <path d="m100.07,130.82l-0.6999,0.37l-0.06,0.16l0.16,-0.015l0.5999,-0.515z" fill="#5A86A3" id="svg_5"/>
  <path d="m99.1199,131.445c-0.12,0 -0.03,-0.17 -0.03,-0.17l-0.46,0.235l-0.145,0.195l-0.15,0.12c0,0 -0.17,0.235 -0.085,0.235c0.2526,-0.087 0.4998,-0.188 0.74,-0.305c0.1221,-0.095 0.2374,-0.199 0.345,-0.31l-0.215,0z" fill="#5A86A3" id="svg_6"/>
  <path d="m91.1548,132.135l-0.16,0.12l-0.775,0.05l-0.145,-0.145l-0.125,0.11c0,0 -1.095,0.085 -1.23,0.05c-0.135,-0.035 -1.4,-0.5 -1.4,-0.5c0,0 1.5,-0.085 1.56,-0.06l0.1,0.045l-0.085,0.275l0.295,-0.295c0,0 0.65,-0.025 0.725,0c0.075,0.025 0.39,0.16 0.39,0.16l0.85,0.19z" fill="#5A86A3" id="svg_7"/>
 </g>

</svg>