<svg width="250" height="250" xmlns="http://www.w3.org/2000/svg" fill="none">
 <g>
  <title>Layer 1</title>
  <g id="svg_1">
   <path id="svg_2" fill="#AC3033" d="m208.31,71.5752c2.24,-1.29 2.24,-3.405 0,-4.695l-79.22,-45.73497c-2.235,-1.29 -5.89,-1.29 -8.125,0l-79.22,45.73497c-2.24,1.29 -2.24,3.405 0,4.695l79.2,45.7401c2.235,1.285 5.89,1.285 8.125,0l79.24,-45.7401z"/>
   <path id="svg_3" fill="#AC3033" d="m30,78.6902c0,-2.58 1.825,-3.64 4.065,-2.35l79.225,45.7648c2.23,1.29 2.23,3.4 0,4.69l-79.225,45.74c-2.24,1.29 -4.065,0.235 -4.065,-2.345l0,-91.4998z"/>
   <path id="svg_4" fill="#AC3033" d="m135.625,126.77c-2.23,-1.29 -2.23,-3.4 0,-4.69l79.22,-45.7398c2.235,-1.29 4.065,-0.23 4.065,2.35l0,91.4648c0,2.58 -1.83,3.635 -4.065,2.345l-79.22,-45.73z"/>
   <path id="svg_5" fill="#AC3033" d="m41.745,181.97c-2.24,-1.29 -2.24,-3.4 0,-4.69l79.22,-45.74c2.235,-1.285 5.89,-1.285 8.125,0l79.2,45.74c2.24,1.29 2.24,3.4 0,4.69l-79.22,45.74c-2.235,1.29 -5.89,1.29 -8.125,0l-79.2,-45.74z"/>
  </g>
  <path id="svg_7" fill="#AC3033" d="m96.0249,70.94c0.3037,-0.1099 0.5752,-0.2938 0.79,-0.535l2.6,0.035c0,0 -2.445,0.5 -2.65,0.5l-0.74,0z"/>
  <path id="svg_8" fill="#AC3033" d="m102.27,69.325l-0.545,0.285l-0.05,0.125l0.125,-0.01l0.47,-0.4z"/>
  <path id="svg_9" fill="#AC3033" d="m101.53,69.8098c-0.095,0 -0.03,-0.135 -0.03,-0.135l-0.355,0.185l-0.115,0.15l-0.115,0.095c0,0 -0.13,0.185 -0.065,0.185c0.196,-0.0687 0.388,-0.1489 0.575,-0.24c0.093,-0.0742 0.182,-0.1543 0.265,-0.24l-0.16,0z"/>
  <path id="svg_10" fill="#AC3033" d="m95.3301,70.345l-0.12,0.095l-0.605,0.04l-0.115,-0.115l-0.095,0.085c0,0 -0.85,0.065 -0.955,0.04c-0.105,-0.025 -1.09,-0.375 -1.09,-0.375c0,0 1.165,-0.065 1.215,-0.045l0.075,0.035l-0.065,0.21l0.23,-0.23l0.56,0c0.1057,0.0354 0.2093,0.0771 0.31,0.125l0.655,0.135z"/>
 </g>

</svg>