<svg width="400" height="200" xmlns="http://www.w3.org/2000/svg" fill="none">
 <g>
  <title>Layer 1</title>
  <g id="svg_1" stroke="null">
   <path id="svg_2" fill="#D29E26" d="m83.635,181.5849l-58.635,0l108.9553,-166.5849l29.315,44.825l-79.6353,121.7599z" stroke="null"/>
   <path id="svg_3" fill="#D29E26" d="m196.0653,109.9549l-46.84,71.63l-58.645,0l76.165,-116.4499l29.32,44.8199z" stroke="null"/>
   <path id="svg_4" fill="#D29E26" d="m199.5453,104.6499l29.315,-44.8249l-29.315,-44.825l-29.325,44.825l29.325,44.8249z" stroke="null"/>
   <path id="svg_5" fill="#D29E26" d="m235.8003,59.825l29.325,-44.825l108.955,166.5849l-58.635,0l-79.645,-121.7599z" stroke="null"/>
   <path id="svg_6" fill="#D29E26" d="m308.4953,181.5849l-76.165,-116.4499l-29.325,44.8199l46.86,71.63l58.63,0z" stroke="null"/>
   <path id="svg_7" fill="#D29E26" d="m199.5453,115.2649l43.37,66.32l-86.755,0l43.385,-66.32z" stroke="null"/>
  </g>
  <path id="svg_9" fill="#D29E26" d="m43.3101,171.985c0.3114,-0.113 0.5897,-0.302 0.81,-0.55l2.675,0.05c0,0 -2.515,0.5 -2.725,0.5l-0.76,0z"/>
  <path id="svg_10" fill="#D29E26" d="m49.7252,170.325l-0.56,0.295l-0.05,0.125l0.13,-0.01l0.48,-0.41z"/>
  <path id="svg_11" fill="#D29E26" d="m48.97,170.825c-0.1,0 -0.03,-0.135 -0.03,-0.135l-0.365,0.185l-0.115,0.155l-0.12,0.1c0,0 -0.135,0.185 -0.065,0.185c0.1999,-0.07 0.3953,-0.151 0.585,-0.245c0.0977,-0.075 0.1896,-0.157 0.275,-0.245l-0.165,0z"/>
  <path id="svg_12" fill="#D29E26" d="m42.5951,171.375l-0.125,0.095l-0.62,0.03l-0.12,-0.12l-0.095,0.09c-0.3324,0.029 -0.6662,0.041 -1,0.035c-0.105,-0.03 -1.12,-0.38 -1.12,-0.38c0,0 1.2,-0.07 1.25,-0.05l0.075,0.04l-0.065,0.215l0.235,-0.235l0.58,0c0.1058,0.035 0.2093,0.077 0.31,0.125l0.695,0.155z"/>
 </g>

</svg>